<?xml version="1.0" encoding="UTF-8"?> <svg xmlns="http://www.w3.org/2000/svg" id="icon" viewBox="0 0 1000 1000"><path d="M500,500c43.6,0,83.53-18.21,112.42-51.26C639.88,417.31,655,375.15,655,330s-15.12-87.31-42.58-118.74C583.53,178.21,543.6,160,500,160s-83.53,18.21-112.42,51.26C360.12,242.69,345,284.85,345,330s15.12,87.31,42.58,118.74C416.47,481.79,456.4,500,500,500ZM432,246.93c12.39-14.7,34.26-32.23,68-32.23s55.61,17.53,68,32.23c18.11,21.47,28.08,51,28.08,83.07s-10,61.6-28.08,83.07c-12.39,14.7-34.26,32.23-68,32.23s-55.61-17.53-68-32.23c-18.11-21.47-28.08-51-28.08-83.07S413.89,268.4,432,246.93Z"></path><path d="M190,500a124.58,124.58,0,0,0,94.27-42.28C307.31,431.83,320,397.13,320,360s-12.69-71.83-35.73-97.72a126.23,126.23,0,0,0-188.54,0C72.69,288.17,60,322.87,60,360s12.69,71.83,35.73,97.72A124.58,124.58,0,0,0,190,500ZM138.91,297.37c9.29-10.95,25.7-24,51.09-24s41.8,13.05,51.09,24c13.69,16.13,21.23,38.37,21.23,62.63s-7.54,46.5-21.23,62.63c-9.29,10.95-25.7,24-51.09,24s-41.8-13.05-51.09-24c-13.69-16.13-21.23-38.37-21.23-62.63S125.22,313.5,138.91,297.37Z"></path><path d="M121.76,576.19C133.54,581.37,160.19,588,190,588c45.63,0,76.06-17.77,83.45-23.72L251.8,520c-11.27,6.22-28,14-61.8,14-29.19,0-48.34-8.16-65.17-17.36-9.34-5.1-17.55-3.52-25.08,2.84-43.53,36.79-74,73.34-87,105.64C-.09,657,0,686.8,0,724.46v86.3H180v-56H60V724.39c0-33.58-.07-58.77,8.43-79.88C76.35,624.78,97.29,598.55,121.76,576.19Z"></path><path d="M609.28,515.4c-11.17-7-15.14-7.23-24.23-.9-14.38,10-35.94,18.5-85,18.5s-70.67-8.49-85.05-18.5c-9.09-6.33-13.06-6.12-24.23.9-51.5,32.39-101.05,64-131.15,105.13C231,659.62,220,707.79,220,785.55v95H780v-95c0-77.76-11-125.93-39.57-165C710.33,579.38,660.78,547.79,609.28,515.4ZM720,823.5H280v-38c0-68.83,6.46-101.09,28.43-132.21,20.53-29.07,51.71-49.77,99.87-80.87a278.5,278.5,0,0,0,183.4,0c48.16,31.1,79.34,51.8,99.87,80.87,22,31.12,28.43,63.38,28.43,132.21Z"></path><path d="M810,500a124.58,124.58,0,0,0,94.27-42.28C927.31,431.83,940,397.13,940,360s-12.69-71.83-35.73-97.72a126.23,126.23,0,0,0-188.54,0C692.69,288.17,680,322.87,680,360s12.69,71.83,35.73,97.72A124.58,124.58,0,0,0,810,500ZM758.91,297.37c9.29-10.95,25.7-24,51.09-24s41.8,13.05,51.09,24c13.69,16.13,21.23,38.37,21.23,62.63s-7.54,46.5-21.23,62.63c-9.29,10.95-25.7,24-51.09,24s-41.8-13.05-51.09-24c-13.69-16.13-21.23-38.37-21.23-62.63S745.22,313.5,758.91,297.37Z"></path><path d="M987.25,625.12c-13-32.3-43.47-68.85-87-105.64-7.53-6.36-15.74-7.94-25.08-2.84-16.83,9.2-36,17.36-65.17,17.36-33.82,0-50.53-7.75-61.8-14l-21.65,44.25c7.39,6,37.82,23.72,83.45,23.72,29.81,0,56.46-6.63,68.24-11.81,24.47,22.36,45.41,48.59,53.34,68.32,8.5,21.11,8.47,46.3,8.43,79.88v30.37H820v56h180v-86.3C1000.05,686.8,1000.09,657,987.25,625.12Z"></path></svg> 